# xmcd
#
# Track frame offsets:
#	150
#	10912
#	20659
#	33257
#	45051
#	56064
#	65882
#	74346
#	87108
#	100638
#	110603
#	122689
#
# Disc length: 1749 seconds
#
# Revision: 1
# Processed by: cddbd v1.5.2PL0 Copyright (c) Steve Scherf et al.
# Submitted via: audiograbber 1.83.01
#
DISCID=9806d30c
DTITLE=Fats Domino - Getaway With
DYEAR=1969
DGENRE=Blues/Rock&Roll
TTITLE0=When My Dreamboat Comes Home
TTITLE1=Wigs
TTITLE2=Trouble In My Mind
TTITLE3=Man That's All
TTITLE4=Kansas City
TTITLE5=Reelin' And Rockin'
TTITLE6=Slow Boat To China
TTITLE7=Monkey Business
TTITLE8=Heartbreak Hill
TTITLE9=The Girl I'm Gonna Marry
TTITLE10=Why Don't You Do Right
TTITLE11=Ballin' The Jack
EXTD=
EXTT0=
EXTT1=
EXTT2=
EXTT3=
EXTT4=
EXTT5=
EXTT6=
EXTT7=
EXTT8=
EXTT9=
EXTT10=
EXTT11=
PLAYORDER=
